<svg xmlns="http://www.w3.org/2000/svg" viewBox="0 0 256 256" role="img" aria-label="Get Creative Now">
  <defs>
    <linearGradient id="g1" x1="0" y1="0" x2="1" y2="1">
      <stop offset="0" stop-color="#7c3aed"/>
      <stop offset="0.5" stop-color="#3b82f6"/>
      <stop offset="1" stop-color="#10b981"/>
    </linearGradient>

    <radialGradient id="glow" cx="35%" cy="30%" r="80%">
      <stop offset="0" stop-color="#ffffff" stop-opacity="0.22"/>
      <stop offset="0.35" stop-color="#ffffff" stop-opacity="0.10"/>
      <stop offset="1" stop-color="#ffffff" stop-opacity="0"/>
    </radialGradient>

    <filter id="softGlow" x="-40%" y="-40%" width="180%" height="180%">
      <feGaussianBlur stdDeviation="6" result="b"/>
      <feColorMatrix in="b" type="matrix"
        values="1 0 0 0 0
                0 1 0 0 0
                0 0 1 0 0
                0 0 0 0.9 0" result="c"/>
      <feMerge>
        <feMergeNode in="c"/>
        <feMergeNode in="SourceGraphic"/>
      </feMerge>
    </filter>
  </defs>

  <!-- Rounded background -->
  <rect x="18" y="18" width="220" height="220" rx="56" fill="#0b0c10"/>
  <rect x="18" y="18" width="220" height="220" rx="56" fill="url(#glow)"/>

  <!-- Neon ring -->
  <circle cx="128" cy="128" r="74" fill="none" stroke="url(#g1)" stroke-width="16" filter="url(#softGlow)"/>
  <circle cx="128" cy="128" r="74" fill="none" stroke="#ffffff" stroke-opacity="0.16" stroke-width="2"/>

  <!-- Stylized "G" (clean + readable at small sizes) -->
  <path d="M160 132h-28v-14h44v46c-10 10-25 16-44 16-36 0-60-24-60-56s24-56 60-56c18 0 33 6 43 16l-12 12c-7-7-18-11-31-11-25 0-42 16-42 39s17 39 42 39c12 0 22-3 28-9v-6z"
        fill="#eaf0ff" fill-opacity="0.95"/>

  <!-- Micro sparkle -->
  <path d="M198 70l4 10 10 4-10 4-4 10-4-10-10-4 10-4z" fill="#ffffff" fill-opacity="0.45"/>
</svg>
