<!-- /assets/favicon.svg -->
<svg xmlns="http://www.w3.org/2000/svg" width="256" height="256" viewBox="0 0 256 256" role="img" aria-label="Get Creative Now">
  <defs>
    <radialGradient id="g1" cx="30%" cy="25%" r="80%">
      <stop offset="0%" stop-color="#7B8CFF"/>
      <stop offset="45%" stop-color="#FF78C8"/>
      <stop offset="100%" stop-color="#0B0C10"/>
    </radialGradient>
    <radialGradient id="g2" cx="70%" cy="80%" r="85%">
      <stop offset="0%" stop-color="#78FFD2" stop-opacity="0.95"/>
      <stop offset="55%" stop-color="#78FFD2" stop-opacity="0.18"/>
      <stop offset="100%" stop-color="#78FFD2" stop-opacity="0"/>
    </radialGradient>
    <linearGradient id="ring" x1="0" y1="0" x2="1" y2="1">
      <stop offset="0%" stop-color="#7B8CFF"/>
      <stop offset="45%" stop-color="#FF78C8"/>
      <stop offset="100%" stop-color="#78FFD2"/>
    </linearGradient>
    <filter id="glow" x="-30%" y="-30%" width="160%" height="160%">
      <feGaussianBlur stdDeviation="6" result="b"/>
      <feColorMatrix in="b" type="matrix"
        values="1 0 0 0 0
                0 1 0 0 0
                0 0 1 0 0
                0 0 0 0.9 0" result="c"/>
      <feMerge>
        <feMergeNode in="c"/>
        <feMergeNode in="SourceGraphic"/>
      </feMerge>
    </filter>
  </defs>

  <!-- background -->
  <rect width="256" height="256" rx="56" fill="url(#g1)"/>
  <rect width="256" height="256" rx="56" fill="url(#g2)"/>

  <!-- neon ring -->
  <circle cx="128" cy="128" r="78" fill="none" stroke="url(#ring)" stroke-width="14" filter="url(#glow)" opacity="0.95"/>

  <!-- "GCN" monogram -->
  <g fill="none" stroke="#F2F4FF" stroke-width="14" stroke-linecap="round" stroke-linejoin="round" opacity="0.95">
    <!-- G -->
    <path d="M96 96a36 36 0 1 0 0 64h24"/>
    <path d="M120 140h-18"/>
    <!-- C -->
    <path d="M168 96a36 36 0 1 0 0 64"/>
  </g>

  <!-- tiny spark -->
  <path d="M196 68l6 12 12 6-12 6-6 12-6-12-12-6 12-6z" fill="#78FFD2" opacity="0.9" filter="url(#glow)"/>
</svg>
